# This file uses centimeters as units for non-parametric coordinates.

g default
v 1.977671 -1.614181 -0.529915
v 1.773131 -1.614181 -1.023718
v 1.447756 -1.614181 -1.447755
v 1.023718 -1.614181 -1.773131
v 0.529916 -1.614181 -1.977671
v 0.000000 -1.614181 -2.047436
v -0.529915 -1.614181 -1.977671
v -1.023718 -1.614181 -1.773132
v -1.447756 -1.614181 -1.447756
v -1.773132 -1.614181 -1.023718
v -1.977671 -1.614181 -0.529916
v -2.047436 -1.614181 0.000000
v -1.977671 -1.614181 0.529915
v -1.773132 -1.614181 1.023718
v -1.447756 -1.614181 1.447756
v -1.023718 -1.614181 1.773132
v -0.529916 -1.614181 1.977672
v 0.000000 -1.614181 2.047436
v 0.529916 -1.614181 1.977672
v 1.023718 -1.614181 1.773132
v 1.447756 -1.614181 1.447756
v 1.773132 -1.614181 1.023718
v 1.977672 -1.614181 0.529916
v 2.047437 -1.614181 0.000000
v 1.977671 1.614181 -0.529915
v 1.773131 1.614181 -1.023718
v 1.447756 1.614181 -1.447755
v 1.023718 1.614181 -1.773131
v 0.529916 1.614181 -1.977671
v 0.000000 1.614181 -2.047436
v -0.529915 1.614181 -1.977671
v -1.023718 1.614181 -1.773132
v -1.447756 1.614181 -1.447756
v -1.773132 1.614181 -1.023718
v -1.977671 1.614181 -0.529916
v -2.047436 1.614181 0.000000
v -1.977671 1.614181 0.529915
v -1.773132 1.614181 1.023718
v -1.447756 1.614181 1.447756
v -1.023718 1.614181 1.773132
v -0.529916 1.614181 1.977672
v 0.000000 1.614181 2.047436
v 0.529916 1.614181 1.977672
v 1.023718 1.614181 1.773132
v 1.447756 1.614181 1.447756
v 1.773132 1.614181 1.023718
v 1.977672 1.614181 0.529916
v 2.047437 1.614181 0.000000
v 0.000000 -1.614181 0.000000
v 0.000000 1.614181 0.000000
vt 0.375000 0.312500
vt 0.385417 0.312500
vt 0.385417 0.688440
vt 0.375000 0.688440
vt 0.395833 0.312500
vt 0.395833 0.688440
vt 0.406250 0.312500
vt 0.406250 0.688440
vt 0.416667 0.312500
vt 0.416667 0.688440
vt 0.427083 0.312500
vt 0.427083 0.688440
vt 0.437500 0.312500
vt 0.437500 0.688440
vt 0.447917 0.312500
vt 0.447917 0.688440
vt 0.458333 0.312500
vt 0.458333 0.688440
vt 0.468750 0.312500
vt 0.468750 0.688440
vt 0.479167 0.312500
vt 0.479167 0.688440
vt 0.489583 0.312500
vt 0.489583 0.688440
vt 0.500000 0.312500
vt 0.500000 0.688440
vt 0.510417 0.312500
vt 0.510417 0.688440
vt 0.520833 0.312500
vt 0.520833 0.688440
vt 0.531250 0.312500
vt 0.531250 0.688440
vt 0.541667 0.312500
vt 0.541667 0.688440
vt 0.552083 0.312500
vt 0.552083 0.688440
vt 0.562500 0.312500
vt 0.562500 0.688440
vt 0.572917 0.312500
vt 0.572917 0.688440
vt 0.583333 0.312500
vt 0.583333 0.688440
vt 0.593750 0.312500
vt 0.593750 0.688440
vt 0.604167 0.312500
vt 0.604167 0.688440
vt 0.614583 0.312500
vt 0.614583 0.688440
vt 0.625000 0.312500
vt 0.625000 0.688440
vt 0.635316 0.078125
vt 0.650926 0.115810
vt 0.500000 0.150000
vt 0.610485 0.045765
vt 0.578125 0.020934
vt 0.540440 0.005324
vt 0.500000 0.000000
vt 0.459560 0.005324
vt 0.421875 0.020934
vt 0.389515 0.045765
vt 0.364684 0.078125
vt 0.349074 0.115810
vt 0.343750 0.156250
vt 0.349074 0.196690
vt 0.364684 0.234375
vt 0.389515 0.266735
vt 0.421875 0.291566
vt 0.459560 0.307176
vt 0.500000 0.312500
vt 0.540440 0.307176
vt 0.578125 0.291566
vt 0.610485 0.266735
vt 0.635316 0.234375
vt 0.650926 0.196690
vt 0.656250 0.156250
vt 0.650926 0.884190
vt 0.635316 0.921875
vt 0.500000 0.837500
vt 0.610485 0.954235
vt 0.578125 0.979066
vt 0.540440 0.994676
vt 0.500000 1.000000
vt 0.459560 0.994676
vt 0.421875 0.979066
vt 0.389515 0.954235
vt 0.364684 0.921875
vt 0.349074 0.884190
vt 0.343750 0.843750
vt 0.349074 0.803310
vt 0.364684 0.765625
vt 0.389515 0.733265
vt 0.421875 0.708434
vt 0.459560 0.692824
vt 0.500000 0.687500
vt 0.540440 0.692824
vt 0.578125 0.708434
vt 0.610485 0.733265
vt 0.635316 0.765625
vt 0.650926 0.803310
vt 0.656250 0.843750
vn 0.965926 0.000000 -0.258820
vn 0.866025 0.000000 -0.500000
vn 0.866025 0.000000 -0.500000
vn 0.965926 0.000000 -0.258820
vn 0.866025 0.000000 -0.500000
vn 0.707107 0.000000 -0.707107
vn 0.707107 0.000000 -0.707107
vn 0.866025 0.000000 -0.500000
vn 0.707107 0.000000 -0.707107
vn 0.500000 0.000000 -0.866025
vn 0.500000 0.000000 -0.866025
vn 0.707107 0.000000 -0.707107
vn 0.500000 0.000000 -0.866025
vn 0.258819 0.000000 -0.965926
vn 0.258819 0.000000 -0.965926
vn 0.500000 0.000000 -0.866025
vn 0.258819 0.000000 -0.965926
vn 0.000000 0.000000 -1.000000
vn 0.000000 0.000000 -1.000000
vn 0.258819 0.000000 -0.965926
vn 0.000000 0.000000 -1.000000
vn -0.258819 0.000000 -0.965926
vn -0.258819 0.000000 -0.965926
vn 0.000000 0.000000 -1.000000
vn -0.258819 0.000000 -0.965926
vn -0.500000 0.000000 -0.866026
vn -0.500000 0.000000 -0.866026
vn -0.258819 0.000000 -0.965926
vn -0.500000 0.000000 -0.866026
vn -0.707107 0.000000 -0.707107
vn -0.707107 0.000000 -0.707107
vn -0.500000 0.000000 -0.866026
vn -0.707107 0.000000 -0.707107
vn -0.866025 0.000000 -0.500000
vn -0.866025 0.000000 -0.500000
vn -0.707107 0.000000 -0.707107
vn -0.866025 0.000000 -0.500000
vn -0.965926 0.000000 -0.258819
vn -0.965926 0.000000 -0.258819
vn -0.866025 0.000000 -0.500000
vn -0.965926 0.000000 -0.258819
vn -1.000000 0.000000 0.000000
vn -1.000000 0.000000 0.000000
vn -0.965926 0.000000 -0.258819
vn -1.000000 0.000000 0.000000
vn -0.965926 0.000000 0.258819
vn -0.965926 0.000000 0.258819
vn -1.000000 0.000000 0.000000
vn -0.965926 0.000000 0.258819
vn -0.866025 0.000000 0.500000
vn -0.866025 0.000000 0.500000
vn -0.965926 0.000000 0.258819
vn -0.866025 0.000000 0.500000
vn -0.707107 0.000000 0.707107
vn -0.707107 0.000000 0.707107
vn -0.866025 0.000000 0.500000
vn -0.707107 0.000000 0.707107
vn -0.500000 0.000000 0.866025
vn -0.500000 0.000000 0.866025
vn -0.707107 0.000000 0.707107
vn -0.500000 0.000000 0.866025
vn -0.258819 0.000000 0.965926
vn -0.258819 0.000000 0.965926
vn -0.500000 0.000000 0.866025
vn -0.258819 0.000000 0.965926
vn 0.000000 0.000000 1.000000
vn 0.000000 0.000000 1.000000
vn -0.258819 0.000000 0.965926
vn 0.000000 0.000000 1.000000
vn 0.258819 0.000000 0.965926
vn 0.258819 0.000000 0.965926
vn 0.000000 0.000000 1.000000
vn 0.258819 0.000000 0.965926
vn 0.500000 0.000000 0.866026
vn 0.500000 0.000000 0.866026
vn 0.258819 0.000000 0.965926
vn 0.500000 0.000000 0.866026
vn 0.707107 0.000000 0.707107
vn 0.707107 0.000000 0.707107
vn 0.500000 0.000000 0.866026
vn 0.707107 0.000000 0.707107
vn 0.866025 0.000000 0.500000
vn 0.866025 0.000000 0.500000
vn 0.707107 0.000000 0.707107
vn 0.866025 0.000000 0.500000
vn 0.965926 0.000000 0.258819
vn 0.965926 0.000000 0.258819
vn 0.866025 0.000000 0.500000
vn 0.965926 0.000000 0.258819
vn 1.000000 0.000000 -0.000001
vn 1.000000 0.000000 -0.000001
vn 0.965926 0.000000 0.258819
vn 1.000000 0.000000 -0.000001
vn 0.965926 0.000000 -0.258820
vn 0.965926 0.000000 -0.258820
vn 1.000000 0.000000 -0.000001
vn 0.000000 -1.000000 0.000000
vn 0.000000 -1.000000 0.000000
vn 0.000000 -1.000000 0.000000
vn 0.000000 -1.000000 0.000000
vn 0.000000 -1.000000 0.000000
vn 0.000000 -1.000000 0.000000
vn 0.000000 -1.000000 0.000000
vn 0.000000 -1.000000 0.000000
vn 0.000000 -1.000000 0.000000
vn 0.000000 -1.000000 0.000000
vn 0.000000 -1.000000 0.000000
vn 0.000000 -1.000000 0.000000
vn 0.000000 -1.000000 0.000000
vn 0.000000 -1.000000 0.000000
vn 0.000000 -1.000000 0.000000
vn 0.000000 -1.000000 0.000000
vn 0.000000 -1.000000 0.000000
vn 0.000000 -1.000000 0.000000
vn 0.000000 -1.000000 0.000000
vn 0.000000 -1.000000 0.000000
vn 0.000000 -1.000000 0.000000
vn 0.000000 -1.000000 0.000000
vn 0.000000 -1.000000 0.000000
vn 0.000000 -1.000000 0.000000
vn 0.000000 -1.000000 0.000000
vn 0.000000 -1.000000 0.000000
vn 0.000000 -1.000000 0.000000
vn 0.000000 -1.000000 0.000000
vn 0.000000 -1.000000 0.000000
vn 0.000000 -1.000000 0.000000
vn 0.000000 -1.000000 0.000000
vn 0.000000 -1.000000 0.000000
vn 0.000000 -1.000000 0.000000
vn 0.000000 -1.000000 0.000000
vn 0.000000 -1.000000 0.000000
vn 0.000000 -1.000000 0.000000
vn 0.000000 -1.000000 0.000000
vn 0.000000 -1.000000 0.000000
vn 0.000000 -1.000000 0.000000
vn 0.000000 -1.000000 0.000000
vn 0.000000 -1.000000 0.000000
vn 0.000000 -1.000000 0.000000
vn 0.000000 -1.000000 0.000000
vn 0.000000 -1.000000 0.000000
vn 0.000000 -1.000000 0.000000
vn 0.000000 -1.000000 0.000000
vn 0.000000 -1.000000 0.000000
vn 0.000000 -1.000000 0.000000
vn 0.000000 -1.000000 0.000000
vn 0.000000 -1.000000 0.000000
vn 0.000000 -1.000000 0.000000
vn 0.000000 -1.000000 0.000000
vn 0.000000 -1.000000 0.000000
vn 0.000000 -1.000000 0.000000
vn 0.000000 -1.000000 0.000000
vn 0.000000 -1.000000 0.000000
vn 0.000000 -1.000000 0.000000
vn 0.000000 -1.000000 0.000000
vn 0.000000 -1.000000 0.000000
vn 0.000000 -1.000000 0.000000
vn 0.000000 -1.000000 0.000000
vn 0.000000 -1.000000 0.000000
vn 0.000000 -1.000000 0.000000
vn 0.000000 -1.000000 0.000000
vn 0.000000 -1.000000 0.000000
vn 0.000000 -1.000000 0.000000
vn 0.000000 -1.000000 0.000000
vn 0.000000 -1.000000 0.000000
vn 0.000000 -1.000000 0.000000
vn 0.000000 -1.000000 0.000000
vn 0.000000 -1.000000 0.000000
vn 0.000000 -1.000000 0.000000
vn 0.000000 1.000000 0.000000
vn 0.000000 1.000000 0.000000
vn 0.000000 1.000000 0.000000
vn 0.000000 1.000000 0.000000
vn 0.000000 1.000000 0.000000
vn 0.000000 1.000000 0.000000
vn 0.000000 1.000000 0.000000
vn 0.000000 1.000000 0.000000
vn 0.000000 1.000000 0.000000
vn 0.000000 1.000000 0.000000
vn 0.000000 1.000000 0.000000
vn 0.000000 1.000000 0.000000
vn 0.000000 1.000000 0.000000
vn 0.000000 1.000000 0.000000
vn 0.000000 1.000000 0.000000
vn 0.000000 1.000000 0.000000
vn 0.000000 1.000000 0.000000
vn 0.000000 1.000000 0.000000
vn 0.000000 1.000000 0.000000
vn 0.000000 1.000000 0.000000
vn 0.000000 1.000000 0.000000
vn 0.000000 1.000000 0.000000
vn 0.000000 1.000000 0.000000
vn 0.000000 1.000000 0.000000
vn 0.000000 1.000000 0.000000
vn 0.000000 1.000000 0.000000
vn 0.000000 1.000000 0.000000
vn 0.000000 1.000000 0.000000
vn 0.000000 1.000000 0.000000
vn 0.000000 1.000000 0.000000
vn 0.000000 1.000000 0.000000
vn 0.000000 1.000000 0.000000
vn 0.000000 1.000000 0.000000
vn 0.000000 1.000000 0.000000
vn 0.000000 1.000000 0.000000
vn 0.000000 1.000000 0.000000
vn 0.000000 1.000000 0.000000
vn 0.000000 1.000000 0.000000
vn 0.000000 1.000000 0.000000
vn 0.000000 1.000000 0.000000
vn 0.000000 1.000000 0.000000
vn 0.000000 1.000000 0.000000
vn 0.000000 1.000000 0.000000
vn 0.000000 1.000000 0.000000
vn 0.000000 1.000000 0.000000
vn 0.000000 1.000000 0.000000
vn 0.000000 1.000000 0.000000
vn 0.000000 1.000000 0.000000
vn 0.000000 1.000000 0.000000
vn 0.000000 1.000000 0.000000
vn 0.000000 1.000000 0.000000
vn 0.000000 1.000000 0.000000
vn 0.000000 1.000000 0.000000
vn 0.000000 1.000000 0.000000
vn 0.000000 1.000000 0.000000
vn 0.000000 1.000000 0.000000
vn 0.000000 1.000000 0.000000
vn 0.000000 1.000000 0.000000
vn 0.000000 1.000000 0.000000
vn 0.000000 1.000000 0.000000
vn 0.000000 1.000000 0.000000
vn 0.000000 1.000000 0.000000
vn 0.000000 1.000000 0.000000
vn 0.000000 1.000000 0.000000
vn 0.000000 1.000000 0.000000
vn 0.000000 1.000000 0.000000
vn 0.000000 1.000000 0.000000
vn 0.000000 1.000000 0.000000
vn 0.000000 1.000000 0.000000
vn 0.000000 1.000000 0.000000
vn 0.000000 1.000000 0.000000
vn 0.000000 1.000000 0.000000
s off
g br__pCylinder1
f 1/1/1 2/2/2 26/3/3 25/4/4
f 2/2/5 3/5/6 27/6/7 26/3/8
f 3/5/9 4/7/10 28/8/11 27/6/12
f 4/7/13 5/9/14 29/10/15 28/8/16
f 5/9/17 6/11/18 30/12/19 29/10/20
f 6/11/21 7/13/22 31/14/23 30/12/24
f 7/13/25 8/15/26 32/16/27 31/14/28
f 8/15/29 9/17/30 33/18/31 32/16/32
f 9/17/33 10/19/34 34/20/35 33/18/36
f 10/19/37 11/21/38 35/22/39 34/20/40
f 11/21/41 12/23/42 36/24/43 35/22/44
f 12/23/45 13/25/46 37/26/47 36/24/48
f 13/25/49 14/27/50 38/28/51 37/26/52
f 14/27/53 15/29/54 39/30/55 38/28/56
f 15/29/57 16/31/58 40/32/59 39/30/60
f 16/31/61 17/33/62 41/34/63 40/32/64
f 17/33/65 18/35/66 42/36/67 41/34/68
f 18/35/69 19/37/70 43/38/71 42/36/72
f 19/37/73 20/39/74 44/40/75 43/38/76
f 20/39/77 21/41/78 45/42/79 44/40/80
f 21/41/81 22/43/82 46/44/83 45/42/84
f 22/43/85 23/45/86 47/46/87 46/44/88
f 23/45/89 24/47/90 48/48/91 47/46/92
f 24/47/93 1/49/94 25/50/95 48/48/96
f 2/51/97 1/52/98 49/53/99
f 3/54/100 2/51/101 49/53/102
f 4/55/103 3/54/104 49/53/105
f 5/56/106 4/55/107 49/53/108
f 6/57/109 5/56/110 49/53/111
f 7/58/112 6/57/113 49/53/114
f 8/59/115 7/58/116 49/53/117
f 9/60/118 8/59/119 49/53/120
f 10/61/121 9/60/122 49/53/123
f 11/62/124 10/61/125 49/53/126
f 12/63/127 11/62/128 49/53/129
f 13/64/130 12/63/131 49/53/132
f 14/65/133 13/64/134 49/53/135
f 15/66/136 14/65/137 49/53/138
f 16/67/139 15/66/140 49/53/141
f 17/68/142 16/67/143 49/53/144
f 18/69/145 17/68/146 49/53/147
f 19/70/148 18/69/149 49/53/150
f 20/71/151 19/70/152 49/53/153
f 21/72/154 20/71/155 49/53/156
f 22/73/157 21/72/158 49/53/159
f 23/74/160 22/73/161 49/53/162
f 24/75/163 23/74/164 49/53/165
f 1/52/166 24/75/167 49/53/168
f 25/76/169 26/77/170 50/78/171
f 26/77/172 27/79/173 50/78/174
f 27/79/175 28/80/176 50/78/177
f 28/80/178 29/81/179 50/78/180
f 29/81/181 30/82/182 50/78/183
f 30/82/184 31/83/185 50/78/186
f 31/83/187 32/84/188 50/78/189
f 32/84/190 33/85/191 50/78/192
f 33/85/193 34/86/194 50/78/195
f 34/86/196 35/87/197 50/78/198
f 35/87/199 36/88/200 50/78/201
f 36/88/202 37/89/203 50/78/204
f 37/89/205 38/90/206 50/78/207
f 38/90/208 39/91/209 50/78/210
f 39/91/211 40/92/212 50/78/213
f 40/92/214 41/93/215 50/78/216
f 41/93/217 42/94/218 50/78/219
f 42/94/220 43/95/221 50/78/222
f 43/95/223 44/96/224 50/78/225
f 44/96/226 45/97/227 50/78/228
f 45/97/229 46/98/230 50/78/231
f 46/98/232 47/99/233 50/78/234
f 47/99/235 48/100/236 50/78/237
f 48/100/238 25/76/239 50/78/240
