# This file uses centimeters as units for non-parametric coordinates.

g default
v 4.944177 -4.035453 -1.324788
v 4.432828 -4.035453 -2.559294
v 3.619389 -4.035453 -3.619388
v 2.559295 -4.035453 -4.432828
v 1.324789 -4.035453 -4.944177
v 0.000001 -4.035453 -5.118589
v -1.324788 -4.035453 -4.944177
v -2.559294 -4.035453 -4.432829
v -3.619389 -4.035453 -3.619390
v -4.432829 -4.035453 -2.559295
v -4.944178 -4.035453 -1.324789
v -5.118590 -4.035453 -0.000000
v -4.944178 -4.035453 1.324788
v -4.432829 -4.035453 2.559295
v -3.619390 -4.035453 3.619390
v -2.559296 -4.035453 4.432829
v -1.324789 -4.035453 4.944179
v -0.000000 -4.035453 5.118591
v 1.324789 -4.035453 4.944179
v 2.559295 -4.035453 4.432830
v 3.619390 -4.035453 3.619391
v 4.432830 -4.035453 2.559296
v 4.944180 -4.035453 1.324789
v 5.118592 -4.035453 0.000000
v 4.944177 4.035453 -1.324788
v 4.432828 4.035453 -2.559294
v 3.619389 4.035453 -3.619388
v 2.559295 4.035453 -4.432828
v 1.324789 4.035453 -4.944177
v 0.000001 4.035453 -5.118589
v -1.324788 4.035453 -4.944177
v -2.559294 4.035453 -4.432829
v -3.619389 4.035453 -3.619390
v -4.432829 4.035453 -2.559295
v -4.944178 4.035453 -1.324789
v -5.118590 4.035453 -0.000000
v -4.944178 4.035453 1.324788
v -4.432829 4.035453 2.559295
v -3.619390 4.035453 3.619390
v -2.559296 4.035453 4.432829
v -1.324789 4.035453 4.944179
v -0.000000 4.035453 5.118591
v 1.324789 4.035453 4.944179
v 2.559295 4.035453 4.432830
v 3.619390 4.035453 3.619391
v 4.432830 4.035453 2.559296
v 4.944180 4.035453 1.324789
v 5.118592 4.035453 0.000000
v 0.000000 -4.035453 0.000000
v 0.000000 4.035453 0.000000
vt 0.650926 0.115810
vt 0.635316 0.078125
vt 0.610485 0.045765
vt 0.578125 0.020934
vt 0.540440 0.005324
vt 0.500000 0.000000
vt 0.459560 0.005324
vt 0.421875 0.020934
vt 0.389515 0.045765
vt 0.364684 0.078125
vt 0.349074 0.115810
vt 0.343750 0.156250
vt 0.349074 0.196690
vt 0.364684 0.234375
vt 0.389515 0.266735
vt 0.421875 0.291566
vt 0.459560 0.307176
vt 0.500000 0.312500
vt 0.540440 0.307176
vt 0.578125 0.291566
vt 0.610485 0.266735
vt 0.635316 0.234375
vt 0.650926 0.196690
vt 0.656250 0.156250
vt 0.375000 0.312500
vt 0.385417 0.312500
vt 0.395833 0.312500
vt 0.406250 0.312500
vt 0.416667 0.312500
vt 0.427083 0.312500
vt 0.437500 0.312500
vt 0.447917 0.312500
vt 0.458333 0.312500
vt 0.468750 0.312500
vt 0.479167 0.312500
vt 0.489583 0.312500
vt 0.500000 0.312500
vt 0.510417 0.312500
vt 0.520833 0.312500
vt 0.531250 0.312500
vt 0.541667 0.312500
vt 0.552083 0.312500
vt 0.562500 0.312500
vt 0.572917 0.312500
vt 0.583333 0.312500
vt 0.593750 0.312500
vt 0.604167 0.312500
vt 0.614583 0.312500
vt 0.625000 0.312500
vt 0.375000 0.688440
vt 0.385417 0.688440
vt 0.395833 0.688440
vt 0.406250 0.688440
vt 0.416667 0.688440
vt 0.427083 0.688440
vt 0.437500 0.688440
vt 0.447917 0.688440
vt 0.458333 0.688440
vt 0.468750 0.688440
vt 0.479167 0.688440
vt 0.489583 0.688440
vt 0.500000 0.688440
vt 0.510417 0.688440
vt 0.520833 0.688440
vt 0.531250 0.688440
vt 0.541667 0.688440
vt 0.552083 0.688440
vt 0.562500 0.688440
vt 0.572917 0.688440
vt 0.583333 0.688440
vt 0.593750 0.688440
vt 0.604167 0.688440
vt 0.614583 0.688440
vt 0.625000 0.688440
vt 0.650926 0.803310
vt 0.635316 0.765625
vt 0.610485 0.733265
vt 0.578125 0.708434
vt 0.540440 0.692824
vt 0.500000 0.687500
vt 0.459560 0.692824
vt 0.421875 0.708434
vt 0.389515 0.733265
vt 0.364684 0.765625
vt 0.349074 0.803310
vt 0.343750 0.843750
vt 0.349074 0.884190
vt 0.364684 0.921875
vt 0.389515 0.954235
vt 0.421875 0.979066
vt 0.459560 0.994676
vt 0.500000 1.000000
vt 0.540440 0.994676
vt 0.578125 0.979066
vt 0.610485 0.954235
vt 0.635316 0.921875
vt 0.650926 0.884190
vt 0.656250 0.843750
vt 0.500000 0.150000
vt 0.500000 0.837500
vn 0.965926 0.000000 -0.258820
vn 0.866025 0.000000 -0.500000
vn 0.866025 0.000000 -0.500000
vn 0.965926 0.000000 -0.258820
vn 0.707107 0.000000 -0.707107
vn 0.707107 0.000000 -0.707107
vn 0.500000 0.000000 -0.866025
vn 0.500000 0.000000 -0.866025
vn 0.258819 0.000000 -0.965926
vn 0.258819 0.000000 -0.965926
vn 0.000000 0.000000 -1.000000
vn 0.000000 0.000000 -1.000000
vn -0.258819 0.000000 -0.965926
vn -0.258819 0.000000 -0.965926
vn -0.500000 0.000000 -0.866026
vn -0.500000 0.000000 -0.866026
vn -0.707107 0.000000 -0.707107
vn -0.707107 0.000000 -0.707107
vn -0.866025 0.000000 -0.500000
vn -0.866025 0.000000 -0.500000
vn -0.965926 0.000000 -0.258819
vn -0.965926 0.000000 -0.258819
vn -1.000000 0.000000 0.000000
vn -1.000000 0.000000 0.000000
vn -0.965926 0.000000 0.258819
vn -0.965926 0.000000 0.258819
vn -0.866025 0.000000 0.500000
vn -0.866025 0.000000 0.500000
vn -0.707107 0.000000 0.707107
vn -0.707107 0.000000 0.707107
vn -0.500000 0.000000 0.866025
vn -0.500000 0.000000 0.866025
vn -0.258819 0.000000 0.965926
vn -0.258819 0.000000 0.965926
vn -0.000000 0.000000 1.000000
vn -0.000000 0.000000 1.000000
vn 0.258819 0.000000 0.965926
vn 0.258819 0.000000 0.965926
vn 0.500000 0.000000 0.866026
vn 0.500000 0.000000 0.866026
vn 0.707107 0.000000 0.707107
vn 0.707107 0.000000 0.707107
vn 0.866025 0.000000 0.500000
vn 0.866025 0.000000 0.500000
vn 0.965926 0.000000 0.258819
vn 0.965926 0.000000 0.258819
vn 1.000000 0.000000 -0.000001
vn 1.000000 0.000000 -0.000001
vn 0.000000 -1.000000 0.000000
vn 0.000000 -1.000000 0.000000
vn 0.000000 -1.000000 0.000000
vn 0.000000 -1.000000 0.000000
vn 0.000000 -1.000000 0.000000
vn 0.000000 -1.000000 -0.000000
vn 0.000000 -1.000000 -0.000000
vn 0.000000 -1.000000 0.000000
vn 0.000000 -1.000000 0.000000
vn 0.000000 -1.000000 0.000000
vn 0.000000 -1.000000 0.000000
vn 0.000000 -1.000000 0.000000
vn 0.000000 -1.000000 0.000000
vn 0.000000 -1.000000 -0.000000
vn 0.000000 -1.000000 -0.000000
vn 0.000000 -1.000000 0.000000
vn 0.000000 -1.000000 -0.000000
vn 0.000000 -1.000000 0.000000
vn 0.000000 -1.000000 0.000000
vn 0.000000 -1.000000 0.000000
vn 0.000000 -1.000000 -0.000000
vn 0.000000 -1.000000 0.000000
vn 0.000000 -1.000000 0.000000
vn 0.000000 -1.000000 0.000000
vn 0.000000 -1.000000 0.000000
vn 0.000000 1.000000 0.000000
vn 0.000000 1.000000 0.000000
vn 0.000000 1.000000 0.000000
vn 0.000000 1.000000 0.000000
vn 0.000000 1.000000 0.000000
vn 0.000000 1.000000 0.000000
vn 0.000000 1.000000 0.000000
vn 0.000000 1.000000 0.000000
vn 0.000000 1.000000 0.000000
vn 0.000000 1.000000 0.000000
vn 0.000000 1.000000 0.000000
vn 0.000000 1.000000 0.000000
vn 0.000000 1.000000 0.000000
vn 0.000000 1.000000 -0.000000
vn 0.000000 1.000000 -0.000000
vn 0.000000 1.000000 0.000000
vn 0.000000 1.000000 0.000000
vn 0.000000 1.000000 0.000000
vn 0.000000 1.000000 -0.000000
vn 0.000000 1.000000 0.000000
vn 0.000000 1.000000 -0.000000
vn 0.000000 1.000000 0.000000
vn 0.000000 1.000000 0.000000
vn 0.000000 1.000000 0.000000
vn 0.000000 1.000000 0.000000
s 1
g pCylinder1
f 1/25/1 2/26/2 26/51/3 25/50/4
f 2/26/2 3/27/5 27/52/6 26/51/3
f 3/27/5 4/28/7 28/53/8 27/52/6
f 4/28/7 5/29/9 29/54/10 28/53/8
f 5/29/9 6/30/11 30/55/12 29/54/10
f 6/30/11 7/31/13 31/56/14 30/55/12
f 7/31/13 8/32/15 32/57/16 31/56/14
f 8/32/15 9/33/17 33/58/18 32/57/16
f 9/33/17 10/34/19 34/59/20 33/58/18
f 10/34/19 11/35/21 35/60/22 34/59/20
f 11/35/21 12/36/23 36/61/24 35/60/22
f 12/36/23 13/37/25 37/62/26 36/61/24
f 13/37/25 14/38/27 38/63/28 37/62/26
f 14/38/27 15/39/29 39/64/30 38/63/28
f 15/39/29 16/40/31 40/65/32 39/64/30
f 16/40/31 17/41/33 41/66/34 40/65/32
f 17/41/33 18/42/35 42/67/36 41/66/34
f 18/42/35 19/43/37 43/68/38 42/67/36
f 19/43/37 20/44/39 44/69/40 43/68/38
f 20/44/39 21/45/41 45/70/42 44/69/40
f 21/45/41 22/46/43 46/71/44 45/70/42
f 22/46/43 23/47/45 47/72/46 46/71/44
f 23/47/45 24/48/47 48/73/48 47/72/46
f 24/48/47 1/49/1 25/74/4 48/73/48
s 2
f 2/2/49 1/1/50 49/99/51
f 3/3/52 2/2/49 49/99/51
f 4/4/53 3/3/52 49/99/51
f 5/5/54 4/4/53 49/99/51
f 6/6/55 5/5/54 49/99/51
f 7/7/56 6/6/55 49/99/51
f 8/8/57 7/7/56 49/99/51
f 9/9/58 8/8/57 49/99/51
f 10/10/59 9/9/58 49/99/51
f 11/11/60 10/10/59 49/99/51
f 12/12/61 11/11/60 49/99/51
f 13/13/62 12/12/61 49/99/51
f 14/14/63 13/13/62 49/99/51
f 15/15/64 14/14/63 49/99/51
f 16/16/65 15/15/64 49/99/51
f 17/17/66 16/16/65 49/99/51
f 18/18/67 17/17/66 49/99/51
f 19/19/68 18/18/67 49/99/51
f 20/20/69 19/19/68 49/99/51
f 21/21/70 20/20/69 49/99/51
f 22/22/71 21/21/70 49/99/51
f 23/23/72 22/22/71 49/99/51
f 24/24/73 23/23/72 49/99/51
f 1/1/50 24/24/73 49/99/51
s 3
f 25/97/74 26/96/75 50/100/76
f 26/96/75 27/95/77 50/100/76
f 27/95/77 28/94/78 50/100/76
f 28/94/78 29/93/79 50/100/76
f 29/93/79 30/92/80 50/100/76
f 30/92/80 31/91/81 50/100/76
f 31/91/81 32/90/82 50/100/76
f 32/90/82 33/89/83 50/100/76
f 33/89/83 34/88/84 50/100/76
f 34/88/84 35/87/85 50/100/76
f 35/87/85 36/86/86 50/100/76
f 36/86/86 37/85/87 50/100/76
f 37/85/87 38/84/88 50/100/76
f 38/84/88 39/83/89 50/100/76
f 39/83/89 40/82/90 50/100/76
f 40/82/90 41/81/91 50/100/76
f 41/81/91 42/80/92 50/100/76
f 42/80/92 43/79/93 50/100/76
f 43/79/93 44/78/94 50/100/76
f 44/78/94 45/77/95 50/100/76
f 45/77/95 46/76/96 50/100/76
f 46/76/96 47/75/97 50/100/76
f 47/75/97 48/98/98 50/100/76
f 48/98/98 25/97/74 50/100/76
