# This file uses centimeters as units for non-parametric coordinates.

g default
v 1.977671 0.529915 -1.614181
v 1.773131 1.023718 -1.614181
v 1.447756 1.447755 -1.614181
v 1.023718 1.773131 -1.614181
v 0.529916 1.977671 -1.614181
v 0.000000 2.047436 -1.614181
v -0.529915 1.977671 -1.614181
v -1.023718 1.773132 -1.614181
v -1.447756 1.447756 -1.614181
v -1.773132 1.023718 -1.614181
v -1.977671 0.529916 -1.614181
v -2.047436 0.000000 -1.614181
v -1.977671 -0.529915 -1.614181
v -1.773132 -1.023718 -1.614181
v -1.447756 -1.447756 -1.614181
v -1.023718 -1.773132 -1.614181
v -0.529916 -1.977672 -1.614181
v 0.000000 -2.047436 -1.614181
v 0.529916 -1.977672 -1.614181
v 1.023718 -1.773132 -1.614181
v 1.447756 -1.447756 -1.614181
v 1.773132 -1.023718 -1.614181
v 1.977672 -0.529916 -1.614181
v 2.047437 0.000000 -1.614181
v 1.977671 0.529915 1.614181
v 1.773131 1.023718 1.614181
v 1.447756 1.447755 1.614181
v 1.023718 1.773131 1.614181
v 0.529916 1.977671 1.614181
v 0.000000 2.047436 1.614181
v -0.529915 1.977671 1.614181
v -1.023718 1.773132 1.614181
v -1.447756 1.447756 1.614181
v -1.773132 1.023718 1.614181
v -1.977671 0.529916 1.614181
v -2.047436 0.000000 1.614181
v -1.977671 -0.529915 1.614181
v -1.773132 -1.023718 1.614181
v -1.447756 -1.447756 1.614181
v -1.023718 -1.773132 1.614181
v -0.529916 -1.977672 1.614181
v 0.000000 -2.047436 1.614181
v 0.529916 -1.977672 1.614181
v 1.023718 -1.773132 1.614181
v 1.447756 -1.447756 1.614181
v 1.773132 -1.023718 1.614181
v 1.977672 -0.529916 1.614181
v 2.047437 0.000000 1.614181
v 0.000000 0.000000 -1.614181
v 0.000000 0.000000 1.614181
vt -0.243342 0.269721
vt -0.231222 0.313642
vt -0.335165 0.313642
vt -0.323045 0.269721
vt -0.208495 0.354551
vt -0.357892 0.354551
vt -0.171233 0.389711
vt -0.395155 0.389711
vt -0.115536 0.414713
vt -0.450596 0.414713
vt -0.044293 0.424014
vt -0.520937 0.424014
vt -0.990961 0.424014
vt -0.919719 0.414713
vt -0.593336 0.414713
vt -0.864022 0.389711
vt -0.649033 0.389711
vt -0.826759 0.354551
vt -0.686295 0.354551
vt -0.804032 0.313642
vt -0.709022 0.313642
vt -0.791912 0.269721
vt -0.721142 0.269721
vt -0.788112 0.224510
vt -0.724943 0.224510
vt -0.791912 0.179299
vt -0.721142 0.179299
vt -0.804032 0.135378
vt -0.709022 0.135378
vt -0.826759 0.094469
vt -0.686295 0.094469
vt -0.864022 0.059309
vt -0.649033 0.059309
vt -0.919718 0.034307
vt -0.593336 0.034307
vt -0.990961 0.025006
vt -0.522094 0.025006
vt -0.044293 0.025006
vt -0.115536 0.034307
vt -0.450851 0.034307
vt -0.171233 0.059309
vt -0.395155 0.059309
vt -0.208495 0.094469
vt -0.357892 0.094469
vt -0.231222 0.135378
vt -0.335165 0.135378
vt -0.243342 0.179299
vt -0.323045 0.179299
vt -0.247143 0.224510
vt -0.319245 0.224510
vt 0.918771 0.733963
vt 0.845385 0.829603
vt 0.518852 0.503070
vt 0.964903 0.622590
vt 0.980638 0.503070
vt 0.964903 0.383552
vt 0.918771 0.272177
vt 0.845385 0.176538
vt 0.749747 0.103152
vt 0.638372 0.057018
vt 0.518852 0.041283
vt 0.399334 0.057018
vt 0.287959 0.103150
vt 0.192320 0.176538
vt 0.118934 0.272177
vt 0.072800 0.383550
vt 0.057065 0.503070
vt 0.072800 0.622590
vt 0.118934 0.733963
vt 0.192320 0.829603
vt 0.287959 0.902989
vt 0.399334 0.949121
vt 0.518852 0.964856
vt 0.638372 0.949123
vt 0.749747 0.902989
vt 0.964903 0.622590
vt 0.918771 0.733963
vt 0.518852 0.503070
vt 0.845385 0.829603
vt 0.749745 0.902989
vt 0.638372 0.949121
vt 0.518852 0.964856
vt 0.399334 0.949121
vt 0.287959 0.902989
vt 0.192320 0.829603
vt 0.118934 0.733963
vt 0.072800 0.622590
vt 0.057065 0.503070
vt 0.072800 0.383552
vt 0.118934 0.272177
vt 0.192320 0.176538
vt 0.287959 0.103150
vt 0.399334 0.057018
vt 0.518852 0.041283
vt 0.638372 0.057018
vt 0.749745 0.103150
vt 0.845385 0.176538
vt 0.918771 0.272177
vt 0.964905 0.383550
vt 0.980640 0.503070
vn 0.965926 0.258820 0.000000
vn 0.866025 0.500000 0.000000
vn 0.866025 0.500000 0.000000
vn 0.965926 0.258820 0.000000
vn 0.866025 0.500000 0.000000
vn 0.707107 0.707107 0.000000
vn 0.707107 0.707107 0.000000
vn 0.866025 0.500000 0.000000
vn 0.707107 0.707107 0.000000
vn 0.500000 0.866025 0.000000
vn 0.500000 0.866025 0.000000
vn 0.707107 0.707107 0.000000
vn 0.500000 0.866025 0.000000
vn 0.258819 0.965926 0.000000
vn 0.258819 0.965926 0.000000
vn 0.500000 0.866025 0.000000
vn 0.258819 0.965926 0.000000
vn 0.000000 1.000000 0.000000
vn 0.000000 1.000000 0.000000
vn 0.258819 0.965926 0.000000
vn 0.000000 1.000000 0.000000
vn -0.258819 0.965926 -0.000000
vn -0.258819 0.965926 -0.000000
vn 0.000000 1.000000 0.000000
vn -0.258819 0.965926 -0.000000
vn -0.500000 0.866026 -0.000000
vn -0.500000 0.866026 -0.000000
vn -0.258819 0.965926 -0.000000
vn -0.500000 0.866026 -0.000000
vn -0.707107 0.707107 -0.000000
vn -0.707107 0.707107 -0.000000
vn -0.500000 0.866026 -0.000000
vn -0.707107 0.707107 -0.000000
vn -0.866025 0.500000 -0.000000
vn -0.866025 0.500000 -0.000000
vn -0.707107 0.707107 -0.000000
vn -0.866025 0.500000 -0.000000
vn -0.965926 0.258819 -0.000000
vn -0.965926 0.258819 -0.000000
vn -0.866025 0.500000 -0.000000
vn -0.965926 0.258819 -0.000000
vn -1.000000 0.000000 0.000000
vn -1.000000 0.000000 0.000000
vn -0.965926 0.258819 -0.000000
vn -1.000000 0.000000 0.000000
vn -0.965926 -0.258819 0.000000
vn -0.965926 -0.258819 0.000000
vn -1.000000 0.000000 0.000000
vn -0.965926 -0.258819 0.000000
vn -0.866025 -0.500000 0.000000
vn -0.866025 -0.500000 0.000000
vn -0.965926 -0.258819 0.000000
vn -0.866025 -0.500000 0.000000
vn -0.707107 -0.707107 0.000000
vn -0.707107 -0.707107 0.000000
vn -0.866025 -0.500000 0.000000
vn -0.707107 -0.707107 0.000000
vn -0.500000 -0.866025 0.000000
vn -0.500000 -0.866025 0.000000
vn -0.707107 -0.707107 0.000000
vn -0.500000 -0.866025 0.000000
vn -0.258819 -0.965926 0.000000
vn -0.258819 -0.965926 0.000000
vn -0.500000 -0.866025 0.000000
vn -0.258819 -0.965926 0.000000
vn 0.000000 -1.000000 0.000000
vn 0.000000 -1.000000 0.000000
vn -0.258819 -0.965926 0.000000
vn 0.000000 -1.000000 0.000000
vn 0.258819 -0.965926 0.000000
vn 0.258819 -0.965926 0.000000
vn 0.000000 -1.000000 0.000000
vn 0.258819 -0.965926 0.000000
vn 0.500000 -0.866026 0.000000
vn 0.500000 -0.866026 0.000000
vn 0.258819 -0.965926 0.000000
vn 0.500000 -0.866026 0.000000
vn 0.707107 -0.707107 0.000000
vn 0.707107 -0.707107 0.000000
vn 0.500000 -0.866026 0.000000
vn 0.707107 -0.707107 0.000000
vn 0.866025 -0.500000 0.000000
vn 0.866025 -0.500000 0.000000
vn 0.707107 -0.707107 0.000000
vn 0.866025 -0.500000 0.000000
vn 0.965926 -0.258819 0.000000
vn 0.965926 -0.258819 0.000000
vn 0.866025 -0.500000 0.000000
vn 0.965926 -0.258819 0.000000
vn 1.000000 0.000001 0.000000
vn 1.000000 0.000001 0.000000
vn 0.965926 -0.258819 0.000000
vn 1.000000 0.000001 0.000000
vn 0.965926 0.258820 0.000000
vn 0.965926 0.258820 0.000000
vn 1.000000 0.000001 0.000000
vn 0.000000 0.000000 -1.000000
vn 0.000000 0.000000 -1.000000
vn 0.000000 0.000000 -1.000000
vn 0.000000 0.000000 -1.000000
vn 0.000000 0.000000 -1.000000
vn 0.000000 0.000000 -1.000000
vn 0.000000 0.000000 -1.000000
vn 0.000000 0.000000 -1.000000
vn 0.000000 0.000000 -1.000000
vn 0.000000 0.000000 -1.000000
vn 0.000000 0.000000 -1.000000
vn 0.000000 0.000000 -1.000000
vn 0.000000 0.000000 -1.000000
vn 0.000000 0.000000 -1.000000
vn 0.000000 0.000000 -1.000000
vn 0.000000 0.000000 -1.000000
vn 0.000000 0.000000 -1.000000
vn 0.000000 0.000000 -1.000000
vn 0.000000 0.000000 -1.000000
vn 0.000000 0.000000 -1.000000
vn 0.000000 0.000000 -1.000000
vn 0.000000 0.000000 -1.000000
vn 0.000000 0.000000 -1.000000
vn 0.000000 0.000000 -1.000000
vn 0.000000 0.000000 -1.000000
vn 0.000000 0.000000 -1.000000
vn 0.000000 0.000000 -1.000000
vn 0.000000 0.000000 -1.000000
vn 0.000000 0.000000 -1.000000
vn 0.000000 0.000000 -1.000000
vn 0.000000 0.000000 -1.000000
vn 0.000000 0.000000 -1.000000
vn 0.000000 0.000000 -1.000000
vn 0.000000 0.000000 -1.000000
vn 0.000000 0.000000 -1.000000
vn 0.000000 0.000000 -1.000000
vn 0.000000 0.000000 -1.000000
vn 0.000000 0.000000 -1.000000
vn 0.000000 0.000000 -1.000000
vn 0.000000 0.000000 -1.000000
vn 0.000000 0.000000 -1.000000
vn 0.000000 0.000000 -1.000000
vn 0.000000 0.000000 -1.000000
vn 0.000000 0.000000 -1.000000
vn 0.000000 0.000000 -1.000000
vn 0.000000 0.000000 -1.000000
vn 0.000000 0.000000 -1.000000
vn 0.000000 0.000000 -1.000000
vn 0.000000 0.000000 -1.000000
vn 0.000000 0.000000 -1.000000
vn 0.000000 0.000000 -1.000000
vn 0.000000 0.000000 -1.000000
vn 0.000000 0.000000 -1.000000
vn 0.000000 0.000000 -1.000000
vn 0.000000 0.000000 -1.000000
vn 0.000000 0.000000 -1.000000
vn 0.000000 0.000000 -1.000000
vn 0.000000 0.000000 -1.000000
vn 0.000000 0.000000 -1.000000
vn 0.000000 0.000000 -1.000000
vn 0.000000 0.000000 -1.000000
vn 0.000000 0.000000 -1.000000
vn 0.000000 0.000000 -1.000000
vn 0.000000 0.000000 -1.000000
vn 0.000000 0.000000 -1.000000
vn 0.000000 0.000000 -1.000000
vn 0.000000 0.000000 -1.000000
vn 0.000000 0.000000 -1.000000
vn 0.000000 0.000000 -1.000000
vn 0.000000 0.000000 -1.000000
vn 0.000000 0.000000 -1.000000
vn 0.000000 0.000000 -1.000000
vn 0.000000 0.000000 1.000000
vn 0.000000 0.000000 1.000000
vn 0.000000 0.000000 1.000000
vn 0.000000 0.000000 1.000000
vn 0.000000 0.000000 1.000000
vn 0.000000 0.000000 1.000000
vn 0.000000 0.000000 1.000000
vn 0.000000 0.000000 1.000000
vn 0.000000 0.000000 1.000000
vn 0.000000 0.000000 1.000000
vn 0.000000 0.000000 1.000000
vn 0.000000 0.000000 1.000000
vn 0.000000 0.000000 1.000000
vn 0.000000 0.000000 1.000000
vn 0.000000 0.000000 1.000000
vn 0.000000 0.000000 1.000000
vn 0.000000 0.000000 1.000000
vn 0.000000 0.000000 1.000000
vn 0.000000 0.000000 1.000000
vn 0.000000 0.000000 1.000000
vn 0.000000 0.000000 1.000000
vn 0.000000 0.000000 1.000000
vn 0.000000 0.000000 1.000000
vn 0.000000 0.000000 1.000000
vn 0.000000 0.000000 1.000000
vn 0.000000 0.000000 1.000000
vn 0.000000 0.000000 1.000000
vn 0.000000 0.000000 1.000000
vn 0.000000 0.000000 1.000000
vn 0.000000 0.000000 1.000000
vn 0.000000 0.000000 1.000000
vn 0.000000 0.000000 1.000000
vn 0.000000 0.000000 1.000000
vn 0.000000 0.000000 1.000000
vn 0.000000 0.000000 1.000000
vn 0.000000 0.000000 1.000000
vn 0.000000 0.000000 1.000000
vn 0.000000 0.000000 1.000000
vn 0.000000 0.000000 1.000000
vn 0.000000 0.000000 1.000000
vn 0.000000 0.000000 1.000000
vn 0.000000 0.000000 1.000000
vn 0.000000 0.000000 1.000000
vn 0.000000 0.000000 1.000000
vn 0.000000 0.000000 1.000000
vn 0.000000 0.000000 1.000000
vn 0.000000 0.000000 1.000000
vn 0.000000 0.000000 1.000000
vn 0.000000 0.000000 1.000000
vn 0.000000 0.000000 1.000000
vn 0.000000 0.000000 1.000000
vn 0.000000 0.000000 1.000000
vn 0.000000 0.000000 1.000000
vn 0.000000 0.000000 1.000000
vn 0.000000 0.000000 1.000000
vn 0.000000 0.000000 1.000000
vn 0.000000 0.000000 1.000000
vn 0.000000 0.000000 1.000000
vn 0.000000 0.000000 1.000000
vn 0.000000 0.000000 1.000000
vn 0.000000 0.000000 1.000000
vn 0.000000 0.000000 1.000000
vn 0.000000 0.000000 1.000000
vn 0.000000 0.000000 1.000000
vn 0.000000 0.000000 1.000000
vn 0.000000 0.000000 1.000000
vn 0.000000 0.000000 1.000000
vn 0.000000 0.000000 1.000000
vn 0.000000 0.000000 1.000000
vn 0.000000 0.000000 1.000000
vn 0.000000 0.000000 1.000000
vn 0.000000 0.000000 1.000000
s off
g br__br__meshcylinder
f 1/1/1 2/2/2 26/3/3 25/4/4
f 2/2/5 3/5/6 27/6/7 26/3/8
f 3/5/9 4/7/10 28/8/11 27/6/12
f 4/7/13 5/9/14 29/10/15 28/8/16
f 5/9/17 6/11/18 30/12/19 29/10/20
f 6/13/21 7/14/22 31/15/23 30/12/24
f 7/14/25 8/16/26 32/17/27 31/15/28
f 8/16/29 9/18/30 33/19/31 32/17/32
f 9/18/33 10/20/34 34/21/35 33/19/36
f 10/20/37 11/22/38 35/23/39 34/21/40
f 11/22/41 12/24/42 36/25/43 35/23/44
f 12/24/45 13/26/46 37/27/47 36/25/48
f 13/26/49 14/28/50 38/29/51 37/27/52
f 14/28/53 15/30/54 39/31/55 38/29/56
f 15/30/57 16/32/58 40/33/59 39/31/60
f 16/32/61 17/34/62 41/35/63 40/33/64
f 17/34/65 18/36/66 42/37/67 41/35/68
f 18/38/69 19/39/70 43/40/71 42/37/72
f 19/39/73 20/41/74 44/42/75 43/40/76
f 20/41/77 21/43/78 45/44/79 44/42/80
f 21/43/81 22/45/82 46/46/83 45/44/84
f 22/45/85 23/47/86 47/48/87 46/46/88
f 23/47/89 24/49/90 48/50/91 47/48/92
f 24/49/93 1/1/94 25/4/95 48/50/96
f 2/51/97 1/52/98 49/53/99
f 3/54/100 2/51/101 49/53/102
f 4/55/103 3/54/104 49/53/105
f 5/56/106 4/55/107 49/53/108
f 6/57/109 5/56/110 49/53/111
f 7/58/112 6/57/113 49/53/114
f 8/59/115 7/58/116 49/53/117
f 9/60/118 8/59/119 49/53/120
f 10/61/121 9/60/122 49/53/123
f 11/62/124 10/61/125 49/53/126
f 12/63/127 11/62/128 49/53/129
f 13/64/130 12/63/131 49/53/132
f 14/65/133 13/64/134 49/53/135
f 15/66/136 14/65/137 49/53/138
f 16/67/139 15/66/140 49/53/141
f 17/68/142 16/67/143 49/53/144
f 18/69/145 17/68/146 49/53/147
f 19/70/148 18/69/149 49/53/150
f 20/71/151 19/70/152 49/53/153
f 21/72/154 20/71/155 49/53/156
f 22/73/157 21/72/158 49/53/159
f 23/74/160 22/73/161 49/53/162
f 24/75/163 23/74/164 49/53/165
f 1/52/166 24/75/167 49/53/168
f 25/76/169 26/77/170 50/78/171
f 26/77/172 27/79/173 50/78/174
f 27/79/175 28/80/176 50/78/177
f 28/80/178 29/81/179 50/78/180
f 29/81/181 30/82/182 50/78/183
f 30/82/184 31/83/185 50/78/186
f 31/83/187 32/84/188 50/78/189
f 32/84/190 33/85/191 50/78/192
f 33/85/193 34/86/194 50/78/195
f 34/86/196 35/87/197 50/78/198
f 35/87/199 36/88/200 50/78/201
f 36/88/202 37/89/203 50/78/204
f 37/89/205 38/90/206 50/78/207
f 38/90/208 39/91/209 50/78/210
f 39/91/211 40/92/212 50/78/213
f 40/92/214 41/93/215 50/78/216
f 41/93/217 42/94/218 50/78/219
f 42/94/220 43/95/221 50/78/222
f 43/95/223 44/96/224 50/78/225
f 44/96/226 45/97/227 50/78/228
f 45/97/229 46/98/230 50/78/231
f 46/98/232 47/99/233 50/78/234
f 47/99/235 48/100/236 50/78/237
f 48/100/238 25/76/239 50/78/240
