# This file uses centimeters as units for non-parametric coordinates.

g default
v 0.109390 0.000000 -0.109390
v -0.000000 0.000000 -0.154701
v -0.109390 0.000000 -0.109390
v -0.154701 0.000000 -0.000000
v -0.109390 0.000000 0.109390
v -0.000000 0.000000 0.154701
v 0.109390 0.000000 0.109390
v 0.154701 0.000000 -0.000000
v 0.109390 2.430249 -0.109390
v -0.000000 2.430249 -0.154701
v -0.109390 2.430249 -0.109390
v -0.154701 2.430249 -0.000000
v -0.109390 2.430249 0.109390
v -0.000000 2.430249 0.154701
v 0.109390 2.430249 0.109390
v 0.154701 2.430249 -0.000000
v -0.000000 0.000000 -0.000000
v 0.227451 2.430249 -0.227451
v -0.000000 2.430249 -0.321664
v -0.227451 2.430249 -0.227451
v -0.321664 2.430249 -0.000000
v -0.227451 2.430249 0.227451
v -0.000000 2.430249 0.321664
v 0.227451 2.430249 0.227451
v 0.321664 2.430249 -0.000000
v 0.000000 3.304234 -0.000000
vt 0.610485 0.045765
vt 0.500000 0.000000
vt 0.389515 0.045765
vt 0.343750 0.156250
vt 0.389515 0.266735
vt 0.500000 0.312500
vt 0.610485 0.266735
vt 0.656250 0.156250
vt 0.375000 0.312500
vt 0.406250 0.312500
vt 0.437500 0.312500
vt 0.468750 0.312500
vt 0.500000 0.312500
vt 0.531250 0.312500
vt 0.562500 0.312500
vt 0.593750 0.312500
vt 0.625000 0.312500
vt 0.375000 0.688440
vt 0.406250 0.688440
vt 0.437500 0.688440
vt 0.468750 0.688440
vt 0.500000 0.688440
vt 0.531250 0.688440
vt 0.562500 0.688440
vt 0.593750 0.688440
vt 0.625000 0.688440
vt 0.610485 0.733265
vt 0.500000 0.687500
vt 0.389515 0.733265
vt 0.343750 0.843750
vt 0.389515 0.954235
vt 0.500000 1.000000
vt 0.610485 0.954235
vt 0.656250 0.843750
vt 0.500000 0.150000
vt 0.500000 0.843055
vt 0.610485 0.954235
vt 0.500000 1.000000
vt 0.389515 0.954235
vt 0.343750 0.843750
vt 0.389515 0.733265
vt 0.500000 0.687500
vt 0.610485 0.733265
vt 0.656250 0.843750
vn 0.707107 0.000000 -0.707107
vn 0.000000 0.000000 -1.000000
vn 0.000000 0.000000 -1.000000
vn 0.707107 0.000000 -0.707107
vn -0.707107 0.000000 -0.707107
vn -0.707107 0.000000 -0.707107
vn -1.000000 0.000000 0.000000
vn -1.000000 0.000000 0.000000
vn -0.707107 0.000000 0.707107
vn -0.707107 0.000000 0.707107
vn 0.000000 0.000000 1.000000
vn 0.000000 0.000000 1.000000
vn 0.707107 0.000000 0.707107
vn 0.707107 0.000000 0.707107
vn 1.000000 0.000000 0.000000
vn 1.000000 0.000000 0.000000
vn 0.000000 -1.000000 0.000000
vn 0.000000 -1.000000 0.000000
vn 0.000000 -1.000000 0.000000
vn 0.000000 -1.000000 0.000000
vn 0.000000 -1.000000 0.000000
vn 0.000000 -1.000000 0.000000
vn 0.000000 -1.000000 0.000000
vn 0.000000 -1.000000 0.000000
vn 0.000000 -1.000000 0.000000
vn 0.000000 -1.000000 0.000000
vn 0.000000 -1.000000 0.000000
vn 0.000000 -1.000000 0.000000
vn 0.000000 -1.000000 0.000000
vn 0.000000 -1.000000 0.000000
vn 0.000000 -1.000000 0.000000
vn 0.000000 -1.000000 0.000000
vn 0.000000 -1.000000 0.000000
vn 0.000000 -1.000000 0.000000
vn 0.000000 -1.000000 0.000000
vn 0.000000 -1.000000 0.000000
vn 0.000000 -1.000000 0.000000
vn 0.000000 -1.000000 0.000000
vn 0.000000 -1.000000 0.000000
vn 0.000000 -1.000000 0.000000
vn 0.000000 -1.000000 0.000001
vn 0.000000 -1.000000 0.000001
vn 0.000000 -1.000000 0.000001
vn 0.000000 -1.000000 0.000001
vn 0.000000 -1.000000 -0.000000
vn 0.000000 -1.000000 -0.000000
vn 0.000000 -1.000000 -0.000000
vn 0.000000 -1.000000 -0.000000
vn 0.000000 -1.000000 0.000000
vn 0.000000 -1.000000 0.000000
vn 0.000000 -1.000000 0.000000
vn 0.000000 -1.000000 0.000000
vn 0.000000 -1.000000 0.000000
vn 0.000000 -1.000000 0.000000
vn 0.000000 -1.000000 0.000000
vn 0.000000 -1.000000 0.000000
vn 0.000000 -1.000000 0.000000
vn 0.000000 -1.000000 0.000000
vn 0.000000 -1.000000 0.000000
vn 0.000000 -1.000000 0.000000
vn 0.000000 -1.000000 -0.000000
vn 0.000000 -1.000000 -0.000000
vn 0.000000 -1.000000 -0.000000
vn 0.000000 -1.000000 -0.000000
vn 0.000000 -1.000000 0.000000
vn 0.000000 -1.000000 0.000000
vn 0.000000 -1.000000 0.000000
vn 0.000000 -1.000000 0.000000
vn 0.000000 -1.000000 0.000000
vn 0.000000 -1.000000 0.000000
vn 0.000000 -1.000000 0.000000
vn 0.000000 -1.000000 0.000000
vn 0.663590 0.345393 -0.663590
vn 0.000000 0.345393 -0.938458
vn 0.000000 1.000000 -0.000000
vn -0.663590 0.345393 -0.663590
vn -0.938458 0.345393 0.000000
vn -0.663590 0.345393 0.663590
vn 0.000000 0.345393 0.938458
vn 0.663590 0.345393 0.663590
vn 0.938458 0.345393 0.000000
s 1
g pCylinder1
f 1/9/1 2/10/2 10/19/3 9/18/4
f 2/10/2 3/11/5 11/20/6 10/19/3
f 3/11/5 4/12/7 12/21/8 11/20/6
f 4/12/7 5/13/9 13/22/10 12/21/8
f 5/13/9 6/14/11 14/23/12 13/22/10
f 6/14/11 7/15/13 15/24/14 14/23/12
f 7/15/13 8/16/15 16/25/16 15/24/14
f 8/16/15 1/17/1 9/26/4 16/25/16
s off
f 2/2/17 1/1/18 17/35/19
f 3/3/20 2/2/21 17/35/22
f 4/4/23 3/3/24 17/35/25
f 5/5/26 4/4/27 17/35/28
f 6/6/29 5/5/30 17/35/31
f 7/7/32 6/6/33 17/35/34
f 8/8/35 7/7/36 17/35/37
f 1/1/38 8/8/39 17/35/40
f 9/33/41 10/32/42 19/38/43 18/37/44
f 10/32/45 11/31/46 20/39/47 19/38/48
f 11/31/49 12/30/50 21/40/51 20/39/52
f 12/30/53 13/29/54 22/41/55 21/40/56
f 13/29/57 14/28/58 23/42/59 22/41/60
f 14/28/61 15/27/62 24/43/63 23/42/64
f 15/27/65 16/34/66 25/44/67 24/43/68
f 16/34/69 9/33/70 18/37/71 25/44/72
s 2
f 18/37/73 19/38/74 26/36/75
f 19/38/74 20/39/76 26/36/75
f 20/39/76 21/40/77 26/36/75
f 21/40/77 22/41/78 26/36/75
f 22/41/78 23/42/79 26/36/75
f 23/42/79 24/43/80 26/36/75
f 24/43/80 25/44/81 26/36/75
f 25/44/81 18/37/73 26/36/75
